<?xml version="1.0" standalone="no"?>
<!DOCTYPE svg PUBLIC "-//W3C//DTD SVG 20010904//EN" "http://www.w3.org/TR/2001/REC-SVG-20010904/DTD/svg10.dtd">
<!-- Created using Krita: https://krita.org -->
<svg xmlns="http://www.w3.org/2000/svg" 
    xmlns:xlink="http://www.w3.org/1999/xlink"
    xmlns:krita="http://krita.org/namespaces/svg/krita"
    xmlns:sodipodi="http://sodipodi.sourceforge.net/DTD/sodipodi-0.dtd"
    width="110.88pt"
    height="111.024pt"
    viewBox="0 0 110.88 111.024">
<defs/>
<g id="group0" transform="translate(-2.34144213538936, -2.97161095943011)" fill="none">
  <path id="path3117-3-9-3" transform="matrix(2.83465058 0 0 2.83465058 2.37153678353112 2.9147731714063)" sodipodi:type="arc" sodipodi:rx="19.555317" sodipodi:ry="19.555317" sodipodi:cx="19.555339242162" sodipodi:cy="19.555339242162" sodipodi:start="4.7026069" sodipodi:end="4.7020109" sodipodi:open="true" d="M19.3524 0.00107533C8.55287 0.113158 -0.111007 8.95876 0.00107533 19.7583C0.113158 30.5578 8.95876 39.2217 19.7583 39.1096C30.5578 38.9975 39.2217 30.1519 39.1096 19.3524C38.9975 8.55287 30.1519 -0.111007 19.3524 0.00107533Z" fill="#ffffff" stroke-opacity="0" stroke="#000000" stroke-width="0" stroke-linecap="square" stroke-linejoin="bevel"/>
  <path id="path16028-1" transform="matrix(0.688803706659648 0.10191756553693 -0.10191756553693 0.688803706659648 14.4192971721649 -4.44089209850063e-16)" fill="none" stroke="#000000" stroke-width="3.2568" stroke-linecap="butt" stroke-linejoin="miter" stroke-miterlimit="2" d="M127.631 127.631L80.2709 111.571L40.1916 141.48L40.8307 91.475L0 62.5998L47.7552 47.7552L62.5998 0L91.475 40.8307L141.48 40.1916L111.571 80.2709Z" sodipodi:nodetypes="ccccccccccc"/>
 </g>
</svg>
