<?xml version="1.0" standalone="no"?>
<!DOCTYPE svg PUBLIC "-//W3C//DTD SVG 20010904//EN" "http://www.w3.org/TR/2001/REC-SVG-20010904/DTD/svg10.dtd">
<!-- Created using Krita: https://krita.org -->
<svg xmlns="http://www.w3.org/2000/svg" 
    xmlns:xlink="http://www.w3.org/1999/xlink"
    xmlns:krita="http://krita.org/namespaces/svg/krita"
    xmlns:sodipodi="http://sodipodi.sourceforge.net/DTD/sodipodi-0.dtd"
    width="246.168pt"
    height="246.168pt"
    viewBox="0 0 246.168 246.168">
<defs/>
<g id="group0" transform="translate(1.59975999187945, 1.51200254939033)" fill="none">
  <rect id="shape0" fill="#ffffff" fill-rule="evenodd" width="242.135990501578" height="241.919990510051"/>
  <path id="rect234-8-6-2-4-5-5" transform="matrix(0 -2.83465058 2.83465058 0 0.293417717903992 242.726768874384)" fill="none" stroke="#000000" stroke-width="1.33674" stroke-linecap="butt" stroke-linejoin="miter" stroke-miterlimit="2" d="M0 0L85.4924 0L85.4924 85.4924L0 85.4924Z" sodipodi:nodetypes="ccccc"/>
 </g><path id="path12423-91-4-4" transform="matrix(2.83465058 0 0 2.83465058 27.1478579232374 10.099785066233)" sodipodi:type="arc" sodipodi:rx="33.818039" sodipodi:ry="33.818039" sodipodi:cx="33.8180774645415" sodipodi:cy="33.8180774645415" sodipodi:start="4.7026069" sodipodi:end="4.7020109" sodipodi:open="true" d="M33.4671 0.00185963C14.7909 0.195689 -0.19197 15.4929 0.00185963 34.169C0.195689 52.8452 15.4929 67.8281 34.169 67.6343C52.8452 67.4405 67.8281 52.1433 67.6343 33.4671C67.4405 14.7909 52.1433 -0.19197 33.4671 0.00185963Z" fill="#000000" stroke="#000000" stroke-width="1.24026" stroke-linecap="butt" stroke-linejoin="miter" stroke-miterlimit="3.5"/><path id="path12423-9-3-9-0" transform="matrix(2.83465058 0 0 2.83465058 36.692301691642 19.6442288346373)" sodipodi:type="arc" sodipodi:rx="30.450981" sodipodi:ry="30.450981" sodipodi:cx="30.4510156348593" sodipodi:cy="30.4510156348593" sodipodi:start="4.7026069" sodipodi:end="4.7020109" sodipodi:open="true" d="M30.135 0.00167447C13.3183 0.176206 -0.172857 13.9503 0.00167447 30.767C0.176206 47.5837 13.9503 61.0749 30.767 60.9004C47.5837 60.7258 61.0749 46.9517 60.9004 30.135C60.7258 13.3183 46.9517 -0.172857 30.135 0.00167447Z" fill="#ffffff" stroke="#000000" stroke-width="1.11678" stroke-linecap="butt" stroke-linejoin="miter" stroke-miterlimit="3.5"/><text id="text2563-8-8-6-5-4-2-4" krita:useRichText="false" text-rendering="auto" krita:textVersion="3" transform="matrix(2.83465058 0 0 2.83465058 -327.287645172717 -789.023937220214)" fill="#000000" stroke-opacity="0" stroke="#000000" stroke-width="0" stroke-linecap="square" stroke-linejoin="bevel" x="148.4901" y="335.97998" text-anchor="middle" xml:space="preserve" style="text-align: center;text-align-last: auto;font-family: arial;font-size: 8.55435;font-weight: 700;line-height: 161.656pt;"><tspan x="148.4901" y="335.97998" style="font-variant: common-ligatures no-discretionary-ligatures no-historical-ligatures contextual normal normal normal normal normal normal normal normal normal normal normal;">0</tspan></text><text id="text2563-8-8-6-5-2-8-8-8" krita:useRichText="false" text-rendering="auto" krita:textVersion="3" transform="matrix(2.83465058 0 0 2.83465058 -327.287645172717 -789.023937220214)" fill="#000000" stroke-opacity="0" stroke="#000000" stroke-width="0" stroke-linecap="square" stroke-linejoin="bevel" x="139.76584" y="318.95111" text-anchor="middle" xml:space="preserve" style="text-align: center;text-align-last: auto;font-family: arial;font-size: 8.55435;font-weight: 700;line-height: 161.656pt;"><tspan x="139.76584" y="318.95111" style="font-variant: common-ligatures no-discretionary-ligatures no-historical-ligatures contextual normal normal normal normal normal normal normal normal normal normal normal;">20</tspan></text><text id="text2563-8-8-6-5-2-9-5-2-6" krita:useRichText="false" text-rendering="auto" krita:textVersion="3" transform="matrix(2.83465058 0 0 2.83465058 -327.287645172717 -789.023937220214)" fill="#000000" stroke-opacity="0" stroke="#000000" stroke-width="0" stroke-linecap="square" stroke-linejoin="bevel" x="150.39754" y="302.21622" text-anchor="middle" xml:space="preserve" style="text-align: center;text-align-last: auto;font-family: arial;font-size: 8.55435;font-weight: 700;line-height: 161.656pt;"><tspan x="150.39754" y="302.21622" style="font-variant: common-ligatures no-discretionary-ligatures no-historical-ligatures contextual normal normal normal normal normal normal normal normal normal normal normal;">40</tspan></text><text id="text2563-8-8-6-5-2-9-0-0-6-8" krita:useRichText="false" text-rendering="auto" krita:textVersion="3" transform="matrix(2.83465058 0 0 2.83465058 -327.287645172717 -789.023937220214)" fill="#000000" stroke-opacity="0" stroke="#000000" stroke-width="0" stroke-linecap="square" stroke-linejoin="bevel" x="167.53801" y="302.21622" text-anchor="middle" xml:space="preserve" style="text-align: center;text-align-last: auto;font-family: arial;font-size: 8.55435;font-weight: 700;line-height: 161.656pt;"><tspan x="167.53801" y="302.21622" style="font-variant: common-ligatures no-discretionary-ligatures no-historical-ligatures contextual normal normal normal normal normal normal normal normal normal normal normal;">60</tspan></text><text id="text2563-8-8-6-5-2-9-0-7-6-9-5" krita:useRichText="false" text-rendering="auto" krita:textVersion="3" transform="matrix(2.83465058 0 0 2.83465058 -327.287645172717 -789.023937220214)" fill="#000000" stroke-opacity="0" stroke="#000000" stroke-width="0" stroke-linecap="square" stroke-linejoin="bevel" x="177.75024" y="318.95111" text-anchor="middle" xml:space="preserve" style="text-align: center;text-align-last: auto;font-family: arial;font-size: 8.55435;font-weight: 700;line-height: 161.656pt;"><tspan x="177.75024" y="318.95111" style="font-variant: common-ligatures no-discretionary-ligatures no-historical-ligatures contextual normal normal normal normal normal normal normal normal normal normal normal;">80</tspan></text><text id="text2563-8-8-6-5-2-9-0-7-0-7-3-8" krita:useRichText="false" text-rendering="auto" krita:textVersion="3" transform="matrix(2.83465058 0 0 2.83465058 -327.287645172717 -789.023937220214)" fill="#000000" stroke-opacity="0" stroke="#000000" stroke-width="0" stroke-linecap="square" stroke-linejoin="bevel" x="169.13876" y="335.97998" text-anchor="middle" xml:space="preserve" style="text-align: center;text-align-last: auto;font-family: arial;font-size: 8.55435;font-weight: 700;line-height: 161.656pt;"><tspan x="169.13876" y="335.97998" style="font-variant: common-ligatures no-discretionary-ligatures no-historical-ligatures contextual normal normal normal normal normal normal normal normal normal normal normal;">100</tspan></text><path id="path12447-1-3-9" transform="matrix(2.83465058 0 0 2.83465058 156.900976305984 164.977913904326)" fill="none" stroke="#000000" stroke-width="1.4" stroke-linecap="butt" stroke-linejoin="miter" stroke-miterlimit="3.5" d="M2.72851 4.49793L0 0" sodipodi:nodetypes="cc"/><path id="path12447-9-2-9-2" transform="matrix(2.83465058 0 0 2.83465058 191.241152331852 106.549160714675)" fill="none" stroke="#000000" stroke-width="1.4" stroke-linecap="butt" stroke-linejoin="miter" stroke-miterlimit="3.5" d="M5.2608 0.0132L0 0" sodipodi:nodetypes="cc"/><path id="path12447-9-3-8-9-0" transform="matrix(2.83465058 0 0 2.83465058 40.337026340746 106.527475637738)" fill="none" stroke="#000000" stroke-width="1.4" stroke-linecap="butt" stroke-linejoin="miter" stroke-miterlimit="3.5" d="M5.26079 0.0132L0 0" sodipodi:nodetypes="cc"/><path id="path12447-9-3-3-9-0-0" transform="matrix(2.83465058 0 0 2.83465058 82.3352093340254 165.270591576712)" fill="none" stroke="#000000" stroke-width="1.4" stroke-linecap="butt" stroke-linejoin="miter" stroke-miterlimit="3.5" d="M2.56956 0L0 4.59058" sodipodi:nodetypes="cc"/><path id="path12447-9-3-3-4-91-7-3" transform="matrix(2.83465058 0 0 2.83465058 82.1035616886282 35.0695912151861)" fill="none" stroke="#000000" stroke-width="1.4" stroke-linecap="butt" stroke-linejoin="miter" stroke-miterlimit="3.5" d="M0 0L2.87332 4.40682" sodipodi:nodetypes="cc"/><path id="path12447-9-3-3-4-9-7-1-3" transform="matrix(2.83465058 0 0 2.83465058 156.747650056111 35.0695912151861)" fill="none" stroke="#000000" stroke-width="1.4" stroke-linecap="butt" stroke-linejoin="miter" stroke-miterlimit="3.5" d="M2.87331 0L0 4.40682" sodipodi:nodetypes="cc"/><path id="path14777-1-1-7" transform="matrix(2.83465058 0 0 2.83465058 105.619624474768 198.446718341904)" fill="#000000" stroke="#000000" stroke-width="1.2" stroke-linecap="butt" stroke-linejoin="miter" stroke-miterlimit="3.5" d="M0 0L0 2.89388L1.48828 2.89388L1.48828 12.3031L10.7156 12.3031L10.7156 2.94349L12.2866 2.94349L12.2866 0.0496" sodipodi:nodetypes="cccccccc"/><path id="path12769-1-2-50" transform="matrix(0.785302383564351 2.72370043820213 -2.72370043820213 0.785302383564351 127.062501625928 98.7083777890378)" sodipodi:type="arc" sodipodi:rx="2.1327448" sodipodi:ry="2.1327448" sodipodi:cx="2.13274722577788" sodipodi:cy="2.13274722577788" sodipodi:start="4.7026069" sodipodi:end="4.7020109" sodipodi:open="true" d="M2.11061 0.000117278C0.932795 0.0123412 -0.0121067 0.977062 0.000117278 2.15488C0.0123412 3.3327 0.977062 4.2776 2.15488 4.26538C3.3327 4.25315 4.2776 3.28843 4.26538 2.11061C4.25315 0.932795 3.28843 -0.0121067 2.11061 0.000117278Z" fill="#000000" stroke="#000000" stroke-width="1.1" stroke-linecap="butt" stroke-linejoin="miter" stroke-miterlimit="3.5"/>
</svg>
