<?xml version="1.0" standalone="no"?>
<!DOCTYPE svg PUBLIC "-//W3C//DTD SVG 20010904//EN" "http://www.w3.org/TR/2001/REC-SVG-20010904/DTD/svg10.dtd">
<!-- Created using Krita: https://krita.org -->
<svg xmlns="http://www.w3.org/2000/svg" 
    xmlns:xlink="http://www.w3.org/1999/xlink"
    xmlns:krita="http://krita.org/namespaces/svg/krita"
    xmlns:sodipodi="http://sodipodi.sourceforge.net/DTD/sodipodi-0.dtd"
    width="246.168pt"
    height="246.168pt"
    viewBox="0 0 246.168 246.168">
<defs/>
<g id="group0" transform="translate(61.8242910781386, 36.925641275481)" fill="none">
  <path id="path12769-1-2-50" transform="matrix(0.785302383564351 2.72370043820213 -2.72370043820213 0.785302383564351 65.2111899788384 61.7422269686203)" sodipodi:type="arc" sodipodi:rx="2.1327448" sodipodi:ry="2.1327448" sodipodi:cx="2.13274722577788" sodipodi:cy="2.13274722577788" sodipodi:start="4.7026069" sodipodi:end="4.7020109" sodipodi:open="true" d="M2.11061 0.000117278C0.932795 0.0123412 -0.0121067 0.977062 0.000117278 2.15488C0.0123412 3.3327 0.977062 4.2776 2.15488 4.26538C3.3327 4.25315 4.2776 3.28843 4.26538 2.11061C4.25315 0.932795 3.28843 -0.0121067 2.11061 0.000117278Z" fill="#000000" stroke="#000000" stroke-width="1.1" stroke-linecap="butt" stroke-linejoin="miter" stroke-miterlimit="3.5"/>
  <path id="path12771-9-33-9" transform="matrix(0.785302383564351 2.72370043820213 -2.72370043820213 0.785302383564351 54.0188785407422 1.13686837721616e-13)" fill="#000000" stroke="#000000" stroke-width="1.1" stroke-linecap="butt" stroke-linejoin="miter" stroke-miterlimit="3.5" d="M28.2055 0.201134C28.5483 -0.0376459 28.823 -0.0967659 29.0148 0.206134C29.314 0.678224 29.6103 1.15279 29.9094 1.6179C30.0925 1.90259 30.2654 2.31187 29.7348 2.61486C28.6103 3.25702 26.5434 4.42601 26.5434 4.42601L0 19.8329C0 19.8329 18.8643 6.70669 28.2055 0.201344Z" sodipodi:nodetypes="cssscccc"/>
 </g>
</svg>
